# xmcd
#
# Track frame offsets: 
#        150
#        11640
#        20360
#        31992
#        43857
#        55880
#        66207
#        77200
#        87560
#        96187
#        107307
#        117377
#        127987
#        140490
#        151195
#        160377
#
# Disc length: 2269 seconds
#
# Revision: 2
# Processed by: cddbd v1.5.2PL0 Copyright (c) Steve Scherf et al.
# Submitted via: ExactAudioCopy v0.99pb5
#
DISCID=ce08db10
DTITLE=Don Gibson - RCA Country Legends
DYEAR=1900
DGENRE=Country
TTITLE0=Oh Lonesome Me
TTITLE1=Blue Blue Day
TTITLE2=Sea Of Heartbreak
TTITLE3=I Can't Stop Lovin' You
TTITLE4=Give Myself A Party
TTITLE5=Sweet Dreams
TTITLE6=(I'd Be) A Legend In My Time
TTITLE7=Don't Tell Me Your Troubles
TTITLE8=Camptown Races
TTITLE9=It Has To Be
TTITLE10=Who Cares
TTITLE11=Didn't Work Out, Did It?
TTITLE12=Just One Time
TTITLE13=Lonesome Number One
TTITLE14=Foggy River
TTITLE15=Funny, Familiar, Forgotten Feelings
EXTD=
EXTT0=
EXTT1=
EXTT2=
EXTT3=
EXTT4=
EXTT5=
EXTT6=
EXTT7=
EXTT8=
EXTT9=
EXTT10=
EXTT11=
EXTT12=
EXTT13=
EXTT14=
EXTT15=
PLAYORDER=
